<?xml version="1.0" encoding="utf-8"?>
<!-- Generator: Adobe Illustrator 22.0.0, SVG Export Plug-In . SVG Version: 6.00 Build 0)  -->
<svg version="1.1" id="Calque_1" xmlns="http://www.w3.org/2000/svg" xmlns:xlink="http://www.w3.org/1999/xlink" x="0px" y="0px"
	 viewBox="0 0 1920 1080" style="enable-background:new 0 0 1920 1080;" xml:space="preserve">
<style type="text/css">
	.st0{fill:#FAF9D3;}
</style>
<g>
	<path class="st0" d="M1815.4,100h-49.1c0-10.5,10.3-22.8,24.5-22.8C1805,77.3,1815.4,89.7,1815.4,100 M1791,146.9
		c7.6,0,14-1.7,19.4-4.6l-7.4-10.3c-3.5,1.5-7.3,2.2-11.3,2.2c-14.3,0-25.3-12.1-25.3-22.4h63.1v-5.7c0-26.1-18.9-41-37.8-41
		c-23.1,0-39.3,18.2-39.3,41C1752.4,129,1768.6,146.9,1791,146.9 M1559.5,108.3h168.6V96.1h-168.6V108.3z M1505.7,145h13.5v-38.6
		c0-16.9,6.7-28.3,17.4-28.3c3.9,0,6.7,1.3,7.1,1.5L1550,68c-0.7-0.5-4.9-2.9-10.6-2.9c-9.9,0-16.7,7.8-20.6,14.3h-0.3V67h-12.8V145
		z M1306.7,108.3h168.6V96.1h-168.6V108.3z M1239.2,134.4c-15.5,0-24.1-14-24.1-29.2c0-14,8.1-27.8,22.6-27.8
		c16.5,0,25.8,12.5,25.8,28S1254.9,134.4,1239.2,134.4 M1236.4,146.9c10.8,0,19.4-3.4,26.1-12.8h0.3v11h13.5V67h-13.5v11.3h-0.3
		c-6.4-9.1-15.5-13.2-26.1-13.2c-20.9,0-35.1,18.9-35.1,41C1201.3,127.7,1215.8,146.9,1236.4,146.9 M1008.4,108.3H1177V96.1h-168.6
		V108.3z M968.9,146.9c8.8,0,15.5-2.9,19.9-5.4l-5.9-9.9c-2.5,1.5-6.6,3.2-11.6,3.2c-13.2,0-21.4-6.2-21.4-18.9V79.1h39V67h-39V31.9
		h-13.5V67H922v12.1h14.3v35.1C936.4,133.4,948,146.9,968.9,146.9 M736.2,108.3h168.6V96.1H736.2V108.3z M682.7,146.9
		c17,0,27.7-8.4,35.6-18.9l-9.1-8.6c-8.6,11.5-16,14.8-25.8,14.8c-14.3,0-26.1-12-26.1-28.2c0-16.2,11.1-28.3,25.3-28.3
		c10.3,0,18,5.4,24.6,13.7l9.4-8.9c-6.4-8.9-16.2-17.4-33.9-17.4c-22.1,0-39.5,18.2-39.5,41C643.3,129,660.3,146.9,682.7,146.9
		 M450.5,108.3h168.6V96.1H450.5V108.3z M413.4,100h-49.1c0-10.5,10.3-22.8,24.5-22.8C403,77.3,413.4,89.7,413.4,100 M389,146.9
		c7.6,0,14-1.7,19.4-4.6l-7.4-10.3c-3.5,1.5-7.3,2.2-11.3,2.2c-14.3,0-25.3-12.1-25.3-22.4h63.1v-5.7c0-26.1-18.9-41-37.8-41
		c-23.1,0-39.3,18.2-39.3,41C350.4,129,366.5,146.9,389,146.9 M157.4,108.3h168.6V96.1H157.4V108.3z M65.7,145h13.5v-38.6
		c0-21.9,8.8-28,19.9-28c9.4,0,15.7,4.7,15.7,26.5V145h13.5V99.8c0-29-14.7-34.7-26.8-34.7c-7.4,0-15.5,2.9-21.8,13.2h-0.5V13H65.7
		V145z"/>
	<path class="st0" d="M1417.5,459.1h12.7v-77.4h-13.4V418c0,22.4-8.2,30.1-20.1,30.1c-10.2,0-15.2-5.3-15.2-26.4v-39.9h-13.4v44.8
		c0,23.2,10.9,34.4,27.6,34.4c6.7,0,13.9-2,21.2-14h0.5V459.1z"/>
	<path class="st0" d="M1127.8,420.5c0,15.7-11.2,28.4-26.9,28.4c-15.9,0-27.1-12.7-27.1-28.4c0-15.7,11.2-28.6,27.1-28.6
		C1116.6,391.9,1127.8,404.8,1127.8,420.5 M1141.5,420.5c0-22.6-17.7-40.6-40.6-40.6c-23.1,0-40.8,18-40.8,40.6
		c0,22.7,17.7,40.4,40.8,40.4C1123.8,460.9,1141.5,443.2,1141.5,420.5"/>
	<path class="st0" d="M828.5,465.8c0,13.2-4.8,18.9-11.4,18.9c-3.7,0-7.4-0.8-12.4-6.2l-7.5,8.9c4.2,5,11.4,9.4,19.6,9.4
		c14.9,0,25.1-10,25.1-28.9v-86.6h-13.4V465.8z M844.9,351.2c0-5.2-4.5-9.7-9.5-9.7c-5.3,0-9.9,4.5-9.9,9.7c0,5.3,4.5,9.7,9.9,9.7
		C840.4,360.9,844.9,356.5,844.9,351.2"/>
	<path class="st0" d="M268,419.8c0,15.5-8.5,28.7-24.4,28.7c-15,0-23.6-14.2-23.6-28.9c0-15.4,9.4-27.6,24.7-27.6
		S268,404.9,268,419.8 M281.7,420.3c0-21.7-14-40.4-34.8-40.4c-10.5,0-19.4,4-25.7,13h-0.5v-64.7h-13.4v130.8h13.4v-10.9h0.3
		c6.2,9.2,15.2,12.7,25.9,12.7C267.3,460.9,281.7,441.9,281.7,420.3"/>
	<path class="st0" d="M547.9,381.2h-13.4v77.4h13.4V381.2z M550.9,351.2c0-5.2-4.5-9.7-9.5-9.7c-5.3,0-9.9,4.5-9.9,9.7
		c0,5.3,4.5,9.7,9.9,9.7C546.4,360.9,550.9,356.5,550.9,351.2"/>
	<polygon class="st0" points="1662.5,419.5 1688.4,383.5 1672.6,383.5 1653.7,411.1 1653.5,411.1 1634.6,383.5 1618.8,383.5 
		1644.7,419.5 1613.9,460.9 1629.9,460.9 1653.5,428.7 1653.7,428.7 1677.2,460.9 1693.3,460.9 	"/>
	<path class="st0" d="M104.8,762.3c16.9,0,27.4-8.4,35.3-18.7l-9-8.5c-8.5,11.4-15.9,14.7-25.6,14.7c-14.2,0-25.9-11.9-25.9-27.9
		c0-16,11-28.1,25.1-28.1c10.2,0,17.9,5.3,24.4,13.5l9.4-8.9c-6.3-8.9-16-17.2-33.6-17.2c-21.9,0-39.1,18-39.1,40.6
		C65.7,744.6,82.6,762.3,104.8,762.3"/>
	<path class="st0" d="M413.6,721.8c0,15.7-11.2,28.4-26.9,28.4c-15.9,0-27.1-12.7-27.1-28.4c0-15.7,11.2-28.6,27.1-28.6
		C402.4,693.3,413.6,706.1,413.6,721.8 M427.3,721.8c0-22.6-17.7-40.6-40.6-40.6c-23.1,0-40.8,18-40.8,40.6
		c0,22.7,17.7,40.4,40.8,40.4C409.6,762.3,427.3,744.6,427.3,721.8"/>
	<path class="st0" d="M649.2,762.3h13.4V724c0-21.7,8.7-27.7,19.7-27.7c9.4,0,15.5,4.7,15.5,26.2v39.8h13.4v-44.8
		c0-28.7-14.5-34.4-26.6-34.4c-7.4,0-15.5,2.8-21.7,13h-0.5v-11.2h-13.2V762.3z"/>
	<path class="st0" d="M965.6,762.3c8.7,0,15.4-2.8,19.7-5.3l-5.8-9.9c-2.5,1.5-6.5,3.2-11.5,3.2c-13,0-21.2-6.2-21.2-18.7v-36.4
		h38.6v-12h-38.6v-34.8h-13.4v34.8h-14.2v12h14.2v34.8C933.3,748.9,944.9,762.3,965.6,762.3"/>
	<path class="st0" d="M1261.4,715.8h-48.6c0-10.4,10.2-22.6,24.2-22.6S1261.4,705.6,1261.4,715.8 M1275.2,727.5v-5.7
		c0-25.9-18.7-40.6-37.4-40.6c-22.9,0-38.9,18-38.9,40.6c0,22.7,16,40.4,38.3,40.4c7.5,0,13.9-1.7,19.2-4.5l-7.4-10.2
		c-3.5,1.5-7.2,2.2-11.2,2.2c-14.2,0-25.1-12-25.1-22.2H1275.2z"/>
	<path class="st0" d="M1473.1,762.3h13.4V724c0-21.7,9.5-27.7,18-27.7c6.9,0,13.9,4.7,13.9,26.2v39.8h13.4V723
		c0-19.4,7-26.7,18-26.7c9,0,13.9,5.5,13.9,26.2v39.8h13.4V716c0-27.2-11.2-32.9-25.4-32.9c-8.5,0-16.7,3.8-22.9,14h-0.3
		c-4.7-11.2-13.5-14-21.2-14c-6,0-14.2,2.8-20.4,13h-0.5v-11.2h-13.2V762.3z"/>
	<path class="st0" d="M1840.6,722.7c0,15-7,29.1-23.1,29.1c-16.5,0-24.9-13.9-24.9-29.2c0-14.2,9.9-27.2,23.4-27.2
		C1831.2,695.3,1840.6,707.3,1840.6,722.7 M1854.3,723.7c0-21.4-14.4-40.8-34.8-40.8c-10.9,0-19.2,3.5-25.9,13h-0.5v-11.2h-13.2
		v113.6h13.4v-47.6h0.3c6.2,9.5,15.2,13.2,25.9,13.2C1840.3,764,1854.3,745.6,1854.3,723.7"/>
	<path class="st0" d="M271.5,1026.6c0,15.7-11.2,28.4-26.9,28.4c-15.9,0-27.1-12.7-27.1-28.4c0-15.7,11.2-28.6,27.1-28.6
		C260.3,998,271.5,1010.9,271.5,1026.6 M285.2,1026.6c0-22.6-17.7-40.6-40.6-40.6c-23.1,0-40.8,18-40.8,40.6
		c0,22.7,17.7,40.4,40.8,40.4C267.5,1067,285.2,1049.3,285.2,1026.6"/>
	<path class="st0" d="M519.3,1067h13.4v-38.3c0-16.7,6.7-28.1,17.2-28.1c3.8,0,6.7,1.3,7,1.5l6.3-11.5c-0.7-0.5-4.8-2.8-10.5-2.8
		c-9.9,0-16.5,7.7-20.4,14.2H532v-12.4h-12.7V1067z"/>
	<path class="st0" d="M845.5,1025.9c0,15.4-8.5,28.7-24.1,28.7c-15.4,0-23.9-13.9-23.9-28.9c0-13.9,8-27.6,22.4-27.6
		C836.4,998.2,845.5,1010.5,845.5,1025.9 M858.2,1065.2v-77.4h-13.4V999h-0.3c-6.3-9-15.4-13-25.9-13c-20.7,0-34.8,18.7-34.8,40.6
		c0,21.4,14.4,40.4,34.8,40.4c10.7,0,19.2-3.3,25.9-12.7h0.3v10.9H858.2z"/>
	<path class="st0" d="M1107.5,989.6h-13.4v77.4h13.4V989.6z M1110.5,959.6c0-5.2-4.5-9.7-9.5-9.7c-5.3,0-9.9,4.5-9.9,9.7
		c0,5.3,4.5,9.7,9.9,9.7C1106,969.2,1110.5,964.9,1110.5,959.6"/>
	<path class="st0" d="M1368.2,1067h13.4v-38.3c0-21.7,8.7-27.7,19.7-27.7c9.4,0,15.5,4.7,15.5,26.2v39.8h13.4v-44.8
		c0-28.7-14.5-34.4-26.6-34.4c-7.4,0-15.5,2.8-21.7,13h-0.5v-11.2h-13.2V1067z"/>
	<path class="st0" d="M1653.8,1067c13.9,0,26.6-9,26.6-22.7c0-12.5-9.2-20.2-25.7-26.4c-7.2-2.7-12.2-5.3-12.2-11.4
		c0-5.3,4.8-9.2,11.4-9.2c5.2,0,9.9,4.2,11.7,8.4l10.5-5.5c-4.2-8.7-12.9-14.2-22.2-14.2c-12.2,0-23.7,7.9-23.7,20.7
		c0,14.2,11.4,19,22.1,23.1c7.9,3,14.9,7.2,14.9,14.4c0,5.7-5.7,11.2-13.2,11.2c-5.5,0-13-3.7-13.5-11.4h-13.4
		C1628.2,1057.8,1637.9,1067,1653.8,1067"/>
</g>
</svg>
